<?xml version="1.0" encoding="UTF-8"?>
<!-- Generator: Adobe Illustrator 17.1.0, SVG Export Plug-In . SVG Version: 6.00 Build 0)  -->
<!DOCTYPE svg PUBLIC "-//W3C//DTD SVG 1.1//EN" "http://www.w3.org/Graphics/SVG/1.1/DTD/svg11.dtd">
<svg version="1.1" id="Layer_1" xmlns="http://www.w3.org/2000/svg" xmlns:xlink="http://www.w3.org/1999/xlink" x="0px" y="0px" viewBox="0 0 75 75" enable-background="new 0 0 75 75" xml:space="preserve">
<g id="Ellipse">
	<g>
		<circle fill-rule="evenodd" clip-rule="evenodd" fill="#18AEFF" cx="37.5" cy="38.5" r="34.5"/>
	</g>
</g>
<g id="Rectangle_5_copy_3">
	<g>
		<path fill-rule="evenodd" clip-rule="evenodd" fill="#FFFFFF" d="M34,45.8c-8.4-0.8-12-4.2-12-4.2v5c0,0,1.6,1.4,5,2.7V47h7V45.8z     M38,27.7c8.8,0,16-2.4,16-5.3c0-2.9-7.2-5.3-16-5.3c-8.8,0-16,2.4-16,5.3C22,25.3,29.2,27.7,38,27.7z M41,42h-5v7h-7v5h7v7h5v-7    h7v-5h-7V42z M43,47h7v2.1c3-1.2,4-2.5,4-2.5v-5c0,0-3,3.1-11,4.1V47z M22,34v5c0,0,3.7,3.4,12,4.2V40h9v3.2c8.6-1,11-4.1,11-4.1    v-5c0,0-4.2,4.4-16.1,4.4C26.7,38.4,22,34,22,34z M37.9,30.8c-11.1,0-15.9-4.4-15.9-4.4v5c0,0,4.8,4.4,15.8,4.4    c12.9,0,16.2-4.4,16.2-4.4v-5C54,26.4,49.8,30.8,37.9,30.8z"/>
	</g>
</g>
</svg>